<?xml version="1.0" standalone="no"?><!DOCTYPE svg PUBLIC "-//W3C//DTD SVG 1.1//EN" "http://www.w3.org/Graphics/SVG/1.1/DTD/svg11.dtd"><svg t="1629481929364" class="icon" viewBox="0 0 1024 1024" version="1.1" xmlns="http://www.w3.org/2000/svg" p-id="1212" xmlns:xlink="http://www.w3.org/1999/xlink" width="200" height="200"><defs><style type="text/css"></style></defs><path d="M835.7 280.8L444.3 672.2l-101.8 11.3 11.3-101.8 391.4-391.4 90.5 90.5m67.9-22.7L767.9 122.4c-12.5-12.5-32.8-12.5-45.3 0L292.7 552.3l-18.2 163.9c-1.1 10.2 2.6 19.6 9.2 26.2 6.6 6.6 16 10.3 26.2 9.2l163.9-18.2 429.9-429.9c12.4-12.6 12.4-32.9-0.1-45.4z" fill="#E04DFF" p-id="1213"></path><path d="M769 577v240c0 17.6-14.4 32-32 32H209c-17.6 0-32-14.4-32-32V289c0-17.6 14.4-32 32-32h240c17.7 0 32-14.3 32-32s-14.3-32-32-32H209c-52.8 0-96 43.2-96 96v528c0 52.8 43.2 96 96 96h528c52.8 0 96-43.2 96-96V577c0-17.7-14.3-32-32-32s-32 14.3-32 32z" fill="#691FFF" p-id="1214"></path></svg>