
<svg xmlns="http://www.w3.org/2000/svg" version="1.1" xmlns:xlink="http://www.w3.org/1999/xlink" preserveAspectRatio="none" x="0px" y="0px" width="413px" height="205px" viewBox="0 0 413 205">
<defs>
<g id="Layer0_0_STROKES_1_FILL">
<path fill="#000000" stroke="none" d="
M 474.65 279.3
L 465.1 283.95
Q 459.7 286.45 457 287.6
L 448.55 291.2
Q 438.15 295.35 430.45 297.85 427.3 298.9 425.7 299.35
L 413.45 302.85 400.7 305.7
Q 397.4 306.4 395.5 306.65
L 383.55 308.4 368.55 309.5
Q 364 309.7 357.5 309.6 351.95 309.45 346.4 309
L 333.15 307.4 313.1 303
Q 307.75 301.45 302.25 299.55
L 296.3 297.4 296.1 297.3 292.9 296.05 292.75 295.95 292.25 295.8 283.75 292.1 261.15 280.25
Q 256.35 277.35 251.7 274.25
L 240.45 266.15 233 260.15 222 250.2 213.75 241.75 201.3 227.1 192.6 215.25 181.6 197.75 181.5 197.5 172.7 181 160 151.5 149.4 119.7
Q 149.4 119.55 149.3 119.65 149.15 119.65 149.25 119.75
L 153.65 140.85
Q 156.7 153.2 160.55 164.65
L 164.5 175.8 164.6 176 172.25 194.15 175.45 200.75 175.75 201.25 176.5 202.8
Q 177.6 204.95 181 211.1
L 190.1 225.9 197.55 236.45
Q 201.3 241.3 204.2 244.8 207.3 248.55 211.4 253
L 213.55 255.3 213.75 255.55 224.3 265.85 240.45 279.1 245.75 282.9
Q 250.4 286.15 255.6 289.35
L 274.45 299.75 288.45 306.1 288.65 306.15 288.8 306.25 291.85 307.45 292.05 307.55 292.25 307.6 298.65 309.95
Q 305.35 312.25 310.15 313.55
L 324.45 316.9 338.9 319.05 345.55 319.65
Q 351.45 320.05 357.35 320.1 363.3 320.1 369.05 319.8
L 380.55 318.8 391.4 317.25 391.75 317.15 397.25 316.15
Q 397.6 316.1 402.7 314.95
L 420.95 309.95 429.9 306.95 430.2 306.8 437.35 304.1 437.65 303.95 437.95 303.85 445.4 300.75 468 289.7
Q 482.05 282.05 495.6 272.95 502.15 268.55 506.6 265.3
L 532.45 244.95
Q 532.55 244.9 532.45 244.8 532.4 244.75 532.3 244.8
L 497.8 266.65 474.65 279.3 Z"/>
</g>

<g id="Layer0_0_MEMBER_0_STROKES_1_FILL">
<path fill="#000000" stroke="none" d="
M 168 183.95
L 167.9 184.05 161.9 187.15
Q 158.9 188.95 158.5 189.25
L 152.25 193.85
Q 150.6 195.15 149.35 196.35
L 143.8 201.9 143.65 202.1 143.5 202.25 139.6 207.05
Q 136.05 211.75 132.7 217.85
L 128.45 227.1 125.1 237 123.8 242.4
Q 123.7 242.5 123.85 242.5
L 123.95 242.45 130.8 228.85
Q 132.4 226 133.3 224.6
L 137.05 218.8 143.7 210.4
Q 148.05 205.4 153.4 201.05
L 154.1 200.5
Q 154.3 200.3 154.45 200.25
L 157.6 197.85 157.8 197.75 157.95 197.6 167.25 192 170.55 190.4 170.8 190.35 178.75 187.2
Q 181.1 186.4 185.9 185.1
L 202.2 182.3 202.65 182.3 207.55 181.9 207.8 181.85 208.45 181.85
Q 208.75 181.8 209.35 181.8 209.6 181.75 210.2 181.75
L 210.4 181.75 210.65 181.7 212.8 181.65
Q 213.4 181.65 213.7 181.6
L 218.75 181.55
Q 219.05 181.6 219.6 181.6
L 222.05 181.6
Q 222.35 181.65 222.9 181.65
L 245.2 183.25 259.2 185
Q 259.3 185.1 259.3 184.95
L 259.25 184.85 258.8 184.65 248.85 181.5 236.95 178.65
Q 235.25 178.25 234.1 178.1
L 233.75 178 219 176.05
Q 218.45 176.05 218.15 176
L 204.55 175.7
Q 204.2 175.75 203.6 175.75
L 199.8 176
Q 195.25 176.35 192.05 176.85
L 184.25 178.35
Q 180.85 179.2 176.55 180.55
L 168 183.95 Z"/>
</g>

<g id="Layer0_0_MEMBER_0_STROKES_2_FILL">
<path fill="#000000" stroke="none" d="
M 221.1 163.8
L 182.4 140.2 151.7 118.9
Q 150.35 117.95 148.7 118.2 147.1 118.45 146.1 119.8 145.5 120.6 145.35 121.65
L 138.95 166.15 123.8 242.4
Q 123.7 242.5 123.85 242.5 123.95 242.6 123.95 242.45
L 126.7 235.25 136.55 204.95 144 175.95 148.65 153.2 152.4 129.3 160 134.6 188.75 152.6 222.35 170 251.25 182.15 259.2 185
Q 259.3 185.1 259.3 184.95 259.4 184.85 259.25 184.85
L 251.85 180.8 251.4 180.6 221.1 163.8 Z"/>
</g>
</defs>

<g transform="matrix( 1, 0, 0, 1, -122.25,-116.75) ">
<use xlink:href="#Layer0_0_STROKES_1_FILL"/>
</g>

<g transform="matrix( 1, 0, 0, 1, -122.25,-116.75) ">
<use xlink:href="#Layer0_0_MEMBER_0_STROKES_1_FILL"/>

<use xlink:href="#Layer0_0_MEMBER_0_STROKES_2_FILL"/>
</g>
</svg>
